<?xml version="1.0" standalone="no"?>
<!DOCTYPE svg PUBLIC "-//W3C//DTD SVG 20010904//EN"
 "http://www.w3.org/TR/2001/REC-SVG-20010904/DTD/svg10.dtd">
<svg version="1.0" xmlns="http://www.w3.org/2000/svg"
 width="499.000000pt" height="46.000000pt" viewBox="0 0 499.000000 46.000000"
 preserveAspectRatio="xMidYMid meet">

<g transform="translate(0.000000,46.000000) scale(0.100000,-0.100000)"
fill="#000000" stroke="none">
<path d="M64 424 c5 -10 13 -32 18 -49 12 -34 28 -55 28 -37 0 26 41 9 92 -38
l53 -50 -52 -49 c-49 -46 -55 -49 -87 -41 -46 10 -56 -1 -14 -17 33 -12 33
-12 -12 -7 -31 4 -41 3 -31 -4 11 -8 9 -11 -10 -14 -22 -4 -20 -5 11 -14 31
-9 36 -15 41 -50 5 -34 7 -36 14 -17 4 13 11 20 16 17 5 -3 10 14 10 38 l2 43
7 -35 7 -35 2 37 c1 30 9 44 52 82 28 25 55 46 61 46 5 0 31 -19 59 -42 42
-37 49 -48 49 -79 0 -23 7 -42 20 -54 20 -18 20 -17 22 21 l1 39 7 -45 c6 -43
15 -41 22 4 2 13 16 23 38 30 30 8 32 10 12 14 -13 2 -19 8 -16 14 5 8 -5 9
-32 6 l-39 -6 30 14 30 15 -40 -4 c-36 -4 -45 0 -94 44 l-54 48 54 50 c56 52
85 63 96 34 5 -12 11 -3 24 33 26 73 26 72 -36 61 -38 -7 -52 -14 -45 -21 21
-21 9 -44 -48 -94 l-59 -51 -61 52 c-55 47 -79 87 -52 87 6 0 10 4 10 9 0 5
-18 11 -39 15 -22 3 -47 9 -57 13 -14 5 -16 3 -10 -13z m61 -22 c-3 -3 -11 0
-18 7 -9 10 -8 11 6 5 10 -3 15 -9 12 -12z m320 8 c-3 -5 -14 -10 -23 -9 -14
0 -13 2 3 9 27 11 27 11 20 0z m-335 -31 c0 -6 -4 -7 -10 -4 -5 3 -10 11 -10
16 0 6 5 7 10 4 6 -3 10 -11 10 -16z m343 1 c-3 -12 -8 -19 -11 -16 -5 6 5 36
12 36 2 0 2 -9 -1 -20z m-346 -266 c-3 -3 -12 -4 -19 -1 -8 3 -5 6 6 6 11 1
17 -2 13 -5z m300 -26 c-3 -7 -5 -2 -5 12 0 14 2 19 5 13 2 -7 2 -19 0 -25z
m60 26 c-3 -3 -12 -4 -19 -1 -8 3 -5 6 6 6 11 1 17 -2 13 -5z"/>
<path d="M580 385 c0 -12 13 -15 60 -15 l60 0 0 -165 c0 -158 1 -165 20 -165
19 0 20 7 20 165 l0 165 60 0 c47 0 60 3 60 15 0 13 -22 15 -140 15 -118 0
-140 -2 -140 -15z"/>
<path d="M920 220 c0 -173 1 -180 20 -180 18 0 20 7 20 85 l0 85 110 0 110 0
0 -85 c0 -69 3 -85 15 -85 13 0 15 27 15 180 0 153 -2 180 -15 180 -12 0 -15
-16 -15 -80 l0 -80 -110 0 -110 0 0 80 c0 73 -2 80 -20 80 -19 0 -20 -7 -20
-180z"/>
<path d="M1330 220 l0 -180 125 0 c104 0 125 2 125 15 0 12 -18 15 -105 15
l-105 0 0 70 0 70 90 0 c73 0 90 3 90 15 0 12 -17 15 -90 15 l-90 0 0 65 0 65
100 0 c82 0 100 3 100 15 0 13 -20 15 -120 15 l-120 0 0 -180z"/>
<path d="M1822 380 c-57 -35 -67 -96 -22 -138 12 -11 54 -29 96 -41 58 -17 77
-27 86 -46 15 -32 -10 -71 -52 -80 -38 -8 -102 2 -127 20 -23 19 -33 18 -33 0
0 -39 116 -68 184 -45 45 15 66 44 66 91 0 48 -27 70 -112 94 -72 19 -98 38
-98 70 0 51 78 79 145 51 30 -13 40 -14 46 -4 11 18 3 26 -39 38 -56 15 -104
12 -140 -10z"/>
<path d="M2110 268 c0 -116 3 -137 20 -166 50 -81 190 -81 240 0 17 29 20 50
20 166 0 107 -3 132 -14 132 -12 0 -15 -26 -18 -129 -3 -113 -6 -133 -24 -158
-41 -55 -127 -55 -168 0 -18 25 -21 45 -25 158 -2 102 -6 129 -17 129 -11 0
-14 -26 -14 -132z"/>
<path d="M2510 221 l0 -181 100 0 c147 0 190 23 190 103 0 27 -7 41 -30 61
l-31 25 21 21 c30 30 27 90 -6 121 -23 22 -35 24 -135 27 l-109 4 0 -181z
m221 120 c25 -31 24 -47 -6 -76 -21 -22 -33 -25 -100 -25 l-75 0 0 66 0 66 81
-4 c70 -3 83 -6 100 -27z m0 -147 c27 -14 30 -19 27 -57 -4 -54 -28 -67 -130
-67 l-78 0 0 70 0 70 75 0 c49 0 87 -6 106 -16z"/>
<path d="M2830 396 c0 -4 118 -280 140 -328 27 -57 44 -37 120 140 40 92 74
173 77 180 3 7 -3 12 -14 12 -15 0 -32 -32 -82 -150 -35 -82 -67 -150 -70
-150 -4 0 -35 68 -70 150 -50 117 -68 150 -82 150 -11 0 -19 -2 -19 -4z"/>
<path d="M3220 220 l0 -180 125 0 c104 0 125 2 125 15 0 12 -18 15 -105 15
l-105 0 0 70 0 70 90 0 c73 0 90 3 90 15 0 12 -17 15 -90 15 l-90 0 0 65 0 65
100 0 c82 0 100 3 100 15 0 13 -20 15 -120 15 l-120 0 0 -180z"/>
<path d="M3560 221 c0 -174 1 -181 20 -181 18 0 20 7 20 55 l0 55 63 0 62 -1
38 -54 c25 -36 45 -55 58 -55 18 0 15 7 -21 57 l-41 57 30 24 c61 47 60 150
-2 196 -23 17 -46 22 -128 24 l-99 4 0 -181z m212 121 c17 -17 23 -34 23 -67
0 -68 -26 -89 -120 -93 l-75 -4 0 97 0 97 75 -4 c61 -3 79 -7 97 -26z"/>
<path d="M3954 385 c-33 -17 -54 -51 -54 -88 0 -42 28 -66 103 -88 85 -26 107
-42 107 -80 0 -56 -110 -77 -176 -34 -29 19 -30 19 -38 -1 -4 -11 6 -20 37
-34 101 -46 217 -6 217 75 0 47 -24 73 -88 91 -98 28 -122 43 -122 74 0 67 75
87 171 46 26 -11 32 22 7 35 -36 19 -129 22 -164 4z"/>
<path d="M4240 220 c0 -153 2 -180 15 -180 13 0 15 27 15 180 0 153 -2 180
-15 180 -13 0 -15 -27 -15 -180z"/>
<path d="M4330 396 c0 -4 118 -280 140 -328 27 -57 44 -37 120 140 40 92 74
173 77 180 3 7 -3 12 -14 12 -15 0 -32 -32 -82 -150 -35 -82 -67 -150 -70
-150 -4 0 -35 68 -70 150 -50 117 -68 150 -82 150 -11 0 -19 -2 -19 -4z"/>
<path d="M4720 220 l0 -180 125 0 c104 0 125 2 125 15 0 12 -18 15 -105 15
l-105 0 0 70 0 70 90 0 c73 0 90 3 90 15 0 12 -17 15 -90 15 l-90 0 0 65 0 65
100 0 c82 0 100 3 100 15 0 13 -20 15 -120 15 l-120 0 0 -180z"/>
</g>
</svg>
